<svg width="20.000000" height="20.000000" viewBox="0 0 20 20" fill="none" xmlns="http://www.w3.org/2000/svg" xmlns:xlink="http://www.w3.org/1999/xlink">
	<desc>
			Created with Pixso.
	</desc>
	<defs>
		<clipPath id="clip421_9283">
			<rect id="Binance coin" rx="0.000000" width="17.844831" height="17.844831" transform="translate(1.077586 1.077586)" fill="white" fill-opacity="0"/>
		</clipPath>
	</defs>
	<rect id="Binance coin" rx="0.000000" width="17.844831" height="17.844831" transform="translate(1.077586 1.077586)" fill="#FFFFFF" fill-opacity="0"/>
	<g clip-path="url(#clip421_9283)">
		<path id="Vector" d="M6.11 8.41L10 4.54L13.88 8.41L16.14 6.16L10 0.04L3.85 6.16L6.11 8.41Z" fill="#F3BA2F" fill-opacity="1.000000" fill-rule="nonzero"/>
		<path id="Vector" d="M0 10L2.25 7.75L4.51 10L2.25 12.25L0 10Z" fill="#F3BA2F" fill-opacity="1.000000" fill-rule="nonzero"/>
		<path id="Vector" d="M6.11 11.58L10 15.45L13.88 11.58L16.14 13.83L16.14 13.83L10 19.95L3.85 13.83L3.85 13.83L6.11 11.58Z" fill="#F3BA2F" fill-opacity="1.000000" fill-rule="nonzero"/>
		<path id="Vector" d="M15.48 10L17.74 7.75L20 10L17.74 12.25L15.48 10Z" fill="#F3BA2F" fill-opacity="1.000000" fill-rule="nonzero"/>
		<path id="Vector" d="M12.29 9.99L10 7.71L8.3 9.4L8.11 9.59L7.7 9.99L7.7 9.99L7.7 10L10 12.28L12.29 10L12.29 9.99L12.29 9.99Z" fill="#F3BA2F" fill-opacity="1.000000" fill-rule="nonzero"/>
	</g>
</svg>
