<svg width="22" height="22" viewBox="0 0 22 22" fill="none" xmlns="http://www.w3.org/2000/svg">
<circle cx="11" cy="11" r="9.1" stroke="#5EB7F7" stroke-width="1.8"/>
<path fill-rule="evenodd" clip-rule="evenodd" d="M16.2552 9.35858C16.4428 9.17107 16.5483 8.91671 16.5484 8.65144C16.5485 8.38616 16.4432 8.13172 16.2557 7.94408C16.0682 7.75644 15.8138 7.65097 15.5486 7.65088C15.2833 7.65079 15.0288 7.75607 14.8412 7.94358L9.8912 12.8936L7.7702 10.7726C7.67736 10.6797 7.56712 10.606 7.44579 10.5556C7.32446 10.5053 7.1944 10.4794 7.06306 10.4794C6.79779 10.4793 6.54334 10.5846 6.3557 10.7721C6.16806 10.9596 6.06259 11.214 6.0625 11.4792C6.06241 11.7445 6.16769 11.9989 6.3552 12.1866L9.1132 14.9446C9.21535 15.0468 9.33664 15.1279 9.47013 15.1832C9.60362 15.2385 9.74671 15.2669 9.8912 15.2669C10.0357 15.2669 10.1788 15.2385 10.3123 15.1832C10.4458 15.1279 10.5671 15.0468 10.6692 14.9446L16.2552 9.35858Z" fill="#5EB7F7"/>
</svg>
