<svg width="24" height="24" viewBox="0 0 24 24" fill="none" xmlns="http://www.w3.org/2000/svg">
<path fill-rule="evenodd" clip-rule="evenodd" d="M10.849 22C10.8259 22.0002 10.8029 22.0002 10.7798 22C9.60176 21.9927 8.47377 21.5203 7.64186 20.6861L4.31315 17.3574C3.89685 16.9413 3.5666 16.4473 3.34129 15.9036C3.11597 15.3599 3 14.7771 3 14.1885C3 13.6 3.11597 13.0172 3.34129 12.4735C3.56656 11.9298 3.89695 11.4357 4.31315 11.0197L5.57657 9.75629C5.58545 9.74672 5.59456 9.73727 5.60389 9.72797C5.61256 9.71932 5.62135 9.71087 5.63026 9.7026L11.0199 4.31293C11.4359 3.89673 11.9298 3.56656 12.4735 3.34129C13.0172 3.11597 13.6 3 14.1885 3C14.7771 3 15.3599 3.11597 15.9036 3.34129C16.4473 3.5666 16.9413 3.89685 17.3574 4.31315L20.6871 7.64293C21.1035 8.05892 21.4337 8.55287 21.6591 9.09655C21.8845 9.64039 22.0006 10.2233 22.0006 10.812C22.0006 11.4007 21.8845 11.9837 21.6591 12.5275C21.4337 13.0712 21.1031 13.5655 20.6868 13.9815L15.2974 19.3699C15.2889 19.3791 15.2801 19.3882 15.2711 19.3971L14.6683 20H19.808C20.3603 20 20.808 20.4478 20.808 21C20.808 21.5523 20.3603 22 19.808 22H10.849ZM14.5862 17.2536L7.74694 10.4144L5.72714 12.4341C5.49669 12.6645 5.31365 12.9381 5.18893 13.2391C5.0642 13.5401 5 13.8627 5 14.1885C5 14.5143 5.0642 14.837 5.18893 15.1379C5.31365 15.4389 5.49647 15.7124 5.72692 15.9427L9.05821 19.274C9.51768 19.7349 10.1404 19.9957 10.7911 20H10.8407C11.1541 19.997 11.4641 19.9343 11.7542 19.8153C12.058 19.6906 12.334 19.5066 12.5658 19.274L14.5862 17.2536Z" fill="#000E6A" fill-opacity="0.25"/>
<path d="M8 1.39604L6.59406 0L4.49505 2.09901L2.39604 0L1 1.39604L3.09901 3.49505L1 5.59406L2.39604 7L4.49505 4.89109L6.59406 7L8 5.59406L5.89109 3.49505L8 1.39604Z" fill="#000E6A" fill-opacity="0.25"/>
</svg>
