<svg width="20.000000" height="20.000000" viewBox="0 0 20 20" fill="none" xmlns="http://www.w3.org/2000/svg" xmlns:xlink="http://www.w3.org/1999/xlink">
	<desc>
			Created with Pixso.
	</desc>
	<defs>
		<clipPath id="clip421_9206">
			<rect id="Ethereum" rx="0.000000" width="18.774513" height="18.774513" transform="translate(0.612745 0.612745)" fill="white" fill-opacity="0"/>
		</clipPath>
	</defs>
	<rect id="Ethereum" rx="0.000000" width="18.774513" height="18.774513" transform="translate(0.612745 0.612745)" fill="#FFFFFF" fill-opacity="0"/>
	<g clip-path="url(#clip421_9206)">
		<g opacity="0.600000">
			<mask id="mask2_9074" mask-type="alpha" maskUnits="userSpaceOnUse" x="3.886719" y="7.394775" width="12.219727" height="6.419678">
				<path id="Vector" d="M3.88 7.39L16.1 7.39L16.1 13.81L3.88 13.81L3.88 7.39Z" fill="#000000" fill-opacity="1.000000" fill-rule="nonzero"/>
			</mask>
			<g mask="url(#mask2_9074)">
				<path id="Vector" d="M9.99 7.39L3.88 10.18L9.99 13.81L16.1 10.18L9.99 7.39Z" fill="#000E6A" fill-opacity="1.000000" fill-rule="nonzero"/>
			</g>
		</g>
		<g opacity="0.450000">
			<mask id="mask2_9078" mask-type="alpha" maskUnits="userSpaceOnUse" x="3.886719" y="0.000000" width="6.111328" height="13.814209">
				<path id="Vector" d="M3.88 0L9.99 0L9.99 13.81L3.88 13.81L3.88 0Z" fill="#000000" fill-opacity="1.000000" fill-rule="nonzero"/>
			</mask>
			<g mask="url(#mask2_9078)">
				<path id="Vector" d="M3.88 10.18L9.99 13.81L9.99 0L3.88 10.18Z" fill="#000E6A" fill-opacity="1.000000" fill-rule="nonzero"/>
			</g>
		</g>
		<g opacity="0.800000">
			<mask id="mask2_9082" mask-type="alpha" maskUnits="userSpaceOnUse" x="9.999023" y="0.000000" width="6.111328" height="13.814209">
				<path id="Vector" d="M9.99 0L16.11 0L16.11 13.81L9.99 13.81L9.99 0Z" fill="#000000" fill-opacity="1.000000" fill-rule="nonzero"/>
			</mask>
			<g mask="url(#mask2_9082)">
				<path id="Vector" d="M9.99 0L9.99 13.81L16.1 10.18L9.99 0Z" fill="#000E6A" fill-opacity="1.000000" fill-rule="nonzero"/>
			</g>
		</g>
		<g opacity="0.450000">
			<mask id="mask2_9086" mask-type="alpha" maskUnits="userSpaceOnUse" x="3.886719" y="11.350098" width="6.111328" height="8.649658">
				<path id="Vector" d="M3.88 11.35L9.99 11.35L9.99 19.99L3.88 19.99L3.88 11.35Z" fill="#000000" fill-opacity="1.000000" fill-rule="nonzero"/>
			</mask>
			<g mask="url(#mask2_9086)">
				<path id="Vector" d="M3.88 11.35L9.99 19.99L9.99 14.97L3.88 11.35Z" fill="#000E6A" fill-opacity="1.000000" fill-rule="nonzero"/>
			</g>
		</g>
		<g opacity="0.800000">
			<mask id="mask2_9090" mask-type="alpha" maskUnits="userSpaceOnUse" x="9.999023" y="11.350342" width="6.113281" height="8.649658">
				<path id="Vector" d="M9.99 11.35L16.11 11.35L16.11 20L9.99 20L9.99 11.35Z" fill="#000000" fill-opacity="1.000000" fill-rule="nonzero"/>
			</mask>
			<g mask="url(#mask2_9090)">
				<path id="Vector" d="M9.99 14.97L9.99 20L16.11 11.35L9.99 14.97Z" fill="#000E6A" fill-opacity="1.000000" fill-rule="nonzero"/>
			</g>
		</g>
	</g>
</svg>
