<svg width="15.562500" height="13.125000" viewBox="0 0 15.5625 13.125" fill="none" xmlns="http://www.w3.org/2000/svg" xmlns:xlink="http://www.w3.org/1999/xlink">
	<defs/>
	<path id="Vector" d="M14.32 3.75C14.28 3.75 14.23 3.74 14.18 3.75L12.29 3.75C10.74 3.75 9.41 4.97 9.41 6.56C9.41 8.15 10.74 9.37 12.29 9.37L14.18 9.37C14.23 9.37 14.28 9.37 14.32 9.37C14.64 9.35 14.94 9.21 15.17 8.99C15.39 8.76 15.53 8.46 15.55 8.15C15.56 8.1 15.56 8.05 15.56 8.01L15.56 5.11C15.56 5.06 15.56 5.01 15.55 4.97C15.53 4.65 15.39 4.35 15.17 4.13C14.94 3.9 14.64 3.77 14.32 3.75ZM12.12 7.31C12.52 7.31 12.85 6.97 12.85 6.56C12.85 6.14 12.52 5.81 12.12 5.81C11.73 5.81 11.4 6.14 11.4 6.56C11.4 6.97 11.73 7.31 12.12 7.31Z" fill="#000E6A" fill-opacity="0.250000" fill-rule="evenodd"/>
	<path id="Vector" d="M14.18 10.5C14.21 10.49 14.24 10.5 14.26 10.51C14.28 10.52 14.3 10.54 14.32 10.56C14.34 10.58 14.35 10.6 14.35 10.63C14.36 10.65 14.36 10.68 14.35 10.7C14.2 11.24 13.96 11.69 13.58 12.08C13.01 12.64 12.3 12.89 11.42 13.01C10.57 13.12 9.48 13.12 8.1 13.12L6.52 13.12C5.14 13.12 4.04 13.12 3.19 13.01C2.31 12.89 1.6 12.64 1.04 12.08C0.48 11.52 0.23 10.8 0.11 9.92C0 9.07 0 7.98 0 6.6L0 6.52C0 5.14 0 4.05 0.11 3.19C0.23 2.31 0.48 1.6 1.04 1.04C1.6 0.48 2.31 0.23 3.19 0.11C4.05 0 5.14 0 6.52 0L8.1 0C9.48 0 10.57 0 11.42 0.11C12.3 0.23 13.01 0.48 13.58 1.04C13.96 1.42 14.2 1.88 14.35 2.41C14.36 2.44 14.36 2.46 14.35 2.49C14.35 2.51 14.34 2.54 14.32 2.56C14.3 2.58 14.28 2.59 14.26 2.61C14.24 2.62 14.21 2.62 14.18 2.62L12.29 2.62C10.16 2.62 8.29 4.3 8.29 6.56C8.29 8.82 10.16 10.5 12.29 10.5L14.18 10.5ZM2.81 3C2.66 3 2.52 3.05 2.41 3.16C2.3 3.27 2.25 3.41 2.25 3.56C2.25 3.71 2.3 3.85 2.41 3.96C2.52 4.06 2.66 4.12 2.81 4.12L5.81 4.12C5.96 4.12 6.1 4.06 6.2 3.96C6.31 3.85 6.37 3.71 6.37 3.56C6.37 3.41 6.31 3.27 6.2 3.16C6.1 3.05 5.96 3 5.81 3L2.81 3Z" fill="#000E6A" fill-opacity="0.250000" fill-rule="evenodd"/>
</svg>
