<svg width="20.000977" height="19.958008" viewBox="0 0 20.001 19.958" fill="none" xmlns="http://www.w3.org/2000/svg" xmlns:xlink="http://www.w3.org/1999/xlink">
	<desc>
			Created with Pixso.
	</desc>
	<defs/>
	<path id="Vector" d="M19.7 12.39C18.36 17.73 12.93 20.99 7.58 19.65C2.22 18.32 -1.04 12.91 0.29 7.56C1.63 2.21 7.06 -1.04 12.41 0.29C17.77 1.63 21.03 7.04 19.7 12.39Z" fill="#F7931A" fill-opacity="1.000000" fill-rule="nonzero"/>
	<path id="Vector" d="M14.41 8.55C14.6 7.22 13.59 6.51 12.21 6.03L12.66 4.24L11.56 3.96L11.12 5.71C10.83 5.64 10.54 5.57 10.24 5.51L10.68 3.75L9.58 3.47L9.14 5.27C8.9 5.22 8.66 5.16 8.43 5.11L8.44 5.1L6.92 4.72L6.63 5.89C6.63 5.89 7.44 6.08 7.43 6.09C7.87 6.2 7.95 6.49 7.94 6.73L7.43 8.78C7.46 8.78 7.5 8.8 7.54 8.81L7.42 8.78L6.71 11.65C6.65 11.79 6.52 11.99 6.2 11.91C6.22 11.93 5.41 11.72 5.41 11.72L4.86 12.97L6.29 13.32C6.56 13.39 6.82 13.46 7.07 13.53L6.62 15.35L7.71 15.62L8.16 13.82C8.46 13.9 8.75 13.97 9.04 14.04L8.59 15.84L9.69 16.11L10.14 14.29C12.01 14.65 13.42 14.5 14.01 12.82C14.49 11.46 13.99 10.67 13 10.16C13.72 9.99 14.26 9.52 14.41 8.55ZM11.9 12.06C11.56 13.42 9.26 12.68 8.52 12.5L9.12 10.09C9.87 10.28 12.25 10.64 11.9 12.06ZM12.24 8.53C11.93 9.77 10.02 9.14 9.4 8.99L9.94 6.8C10.56 6.95 12.56 7.24 12.24 8.53Z" fill="#FFFFFF" fill-opacity="1.000000" fill-rule="nonzero"/>
</svg>
