<svg width="503.584717" height="408.472046" viewBox="0 0 503.585 408.472" fill="none" xmlns="http://www.w3.org/2000/svg" xmlns:xlink="http://www.w3.org/1999/xlink">
	<desc>
			Created with Pixso.
	</desc>
	<defs/>
	<path id="Logo" d="M380.33 76.04C381.29 76.22 381.69 77.37 381.06 78.11L330.32 137.43C330.1 137.69 329.79 137.85 329.46 137.86C327.98 137.91 323.66 137.9 319.76 136.32C311.87 133.13 306.21 119.57 304.97 116.36C304.8 115.94 304.89 115.47 305.2 115.13C306.1 114.17 308.14 112.14 310.38 110.92C311.76 110.17 335.27 117.05 339.41 118.28C339.8 118.39 340.22 118.31 340.54 118.05L349.23 111.25C349.75 110.85 349.87 110.11 349.5 109.55L329.12 78.75C328.75 78.18 328.89 77.42 329.44 77.02L340.74 68.83C341.02 68.62 341.38 68.54 341.73 68.61L380.33 76.04ZM415.69 107.23C415.94 107.14 416.15 106.97 416.29 106.75L429.12 87.24C429.2 87.13 429.28 87.03 429.39 86.94C431.4 85.4 452.12 69.26 461.73 55.42C463.95 52.23 466.62 47.66 468.22 44.83C468.77 43.86 467.89 42.73 466.82 43.03C463.09 44.04 456.45 45.91 451.75 47.57C445.26 49.86 437.7 53.42 430.85 56.95C426.97 57.45 422.28 59.43 417.86 62.7C416.24 63.9 414.77 65.19 413.48 66.51C412.05 67.35 411.09 67.93 410.75 68.13C410.66 68.18 410.57 68.23 410.47 68.26L389.88 74.59C389.63 74.67 389.42 74.81 389.26 75.01L342.15 133.35C341.33 134.36 342.38 135.8 343.6 135.33L415.69 107.23ZM413.48 66.51C408.21 71.94 405.97 77.99 408.45 81.34C409.03 82.12 416.6 84.23 428.9 74.35C441.2 64.47 439.4 59.99 438.44 59.15C436.62 57.56 434.23 56.51 430.85 56.95C423.54 60.71 417.04 64.43 413.48 66.51ZM408.85 117.1C408.87 116.19 407.96 115.55 407.11 115.89L336.91 143.8C336.61 143.92 336.37 144.15 336.24 144.45C335.69 145.79 334.18 149.87 334.3 154.1C334.55 162.6 345.3 172.63 347.87 174.91C348.21 175.21 348.68 175.29 349.1 175.12C350.32 174.61 352.93 173.41 354.86 171.73C356.04 170.7 357.76 146.26 358.06 141.96C358.09 141.55 358.31 141.19 358.66 140.97L368.08 135.18C368.63 134.84 369.36 134.98 369.75 135.5L394.85 168.56C395.25 169.09 396 169.22 396.55 168.85L407.26 161.89C407.61 161.66 407.82 161.27 407.83 160.85L408.85 117.1Z" fill="#FFFFFF" fill-opacity="1.000000" fill-rule="evenodd"/>
	<g opacity="0.500000">
		<rect id="Rectangle 22413" y="347.644653" rx="2.407737" width="375.114227" height="4.815474" transform="rotate(-37.3634 0.000000 347.644653)" fill="#FFFFFF" fill-opacity="1.000000"/>
	</g>
	<g opacity="0.500000">
		<rect id="Rectangle 22415" x="40.000000" y="404.644653" rx="2.407737" width="375.114227" height="4.815474" transform="rotate(-37.3634 40.000000 404.644653)" fill="#FFFFFF" fill-opacity="1.000000"/>
	</g>
	<g opacity="0.500000">
		<rect id="Rectangle 22414" x="83.794922" y="397.005981" rx="2.407737" width="375.114227" height="4.815474" transform="rotate(-37.3634 83.794922 397.005981)" fill="#FFFFFF" fill-opacity="1.000000"/>
	</g>
	<g opacity="0.500000">
		<rect id="Rectangle 4" x="23.000000" y="307.644653" rx="2.407737" width="375.114227" height="4.815474" transform="rotate(-37.3634 23.000000 307.644653)" fill="#FFFFFF" fill-opacity="1.000000"/>
	</g>
</svg>
