<svg width="20.000000" height="20.000000" viewBox="0 0 20 20" fill="none" xmlns="http://www.w3.org/2000/svg" xmlns:xlink="http://www.w3.org/1999/xlink">
	<desc>
			Created with Pixso.
	</desc>
	<defs/>
	<path id="Vector" d="M0 10C0 4.47 4.47 0 10 0C15.52 0 20 4.47 20 10C20 15.52 15.52 20 10 20C4.47 20 0 15.52 0 10ZM10 1.81C5.48 1.81 1.81 5.48 1.81 10C1.81 14.21 5 17.67 9.09 18.13L9.09 14.45C8.22 14.27 7.42 13.84 6.78 13.21C5.93 12.36 5.45 11.2 5.45 10L5.45 8.63C5.45 8.13 5.86 7.72 6.36 7.72L7.27 7.72L7.27 6.36C7.27 5.86 7.67 5.45 8.18 5.45C8.68 5.45 9.09 5.86 9.09 6.36L9.09 7.72L10.9 7.72L10.9 6.36C10.9 5.86 11.31 5.45 11.81 5.45C12.32 5.45 12.72 5.86 12.72 6.36L12.72 7.72L13.63 7.72C14.13 7.72 14.54 8.13 14.54 8.63L14.54 10C14.54 11.2 14.06 12.36 13.21 13.21C12.57 13.84 11.77 14.27 10.9 14.45L10.9 18.13C15 17.67 18.18 14.21 18.18 10C18.18 5.48 14.51 1.81 10 1.81ZM7.27 9.54L7.27 10C7.27 10.72 7.56 11.41 8.07 11.92C8.58 12.43 9.27 12.72 10 12.72C10.72 12.72 11.41 12.43 11.92 11.92C12.43 11.41 12.72 10.72 12.72 10L12.72 9.54L7.27 9.54Z" fill="#FFFFFF" fill-opacity="1.000000" fill-rule="evenodd"/>
</svg>
