<svg width="163.509277" height="132.230453" viewBox="0 0 163.509 132.23" fill="none" xmlns="http://www.w3.org/2000/svg" xmlns:xlink="http://www.w3.org/1999/xlink">
	<desc>
			Created with Pixso.
	</desc>
	<defs/>
	<path id="Logo" d="M75.44 33.05C76.4 33.24 76.8 34.38 76.17 35.13L25.43 94.45C25.22 94.7 24.9 94.86 24.57 94.87C23.1 94.93 18.77 94.91 14.87 93.33C6.98 90.15 1.32 76.58 0.08 73.37C-0.09 72.95 0 72.48 0.31 72.15C1.21 71.18 3.25 69.16 5.49 67.93C6.87 67.18 30.38 74.07 34.52 75.29C34.91 75.41 35.33 75.32 35.65 75.07L44.34 68.27C44.86 67.86 44.98 67.12 44.61 66.57L24.24 35.77C23.86 35.2 24 34.44 24.55 34.04L35.85 25.84C36.14 25.64 36.49 25.56 36.84 25.62L75.44 33.05ZM110.8 64.25C111.05 64.15 111.26 63.98 111.4 63.76L124.23 44.26C124.31 44.14 124.39 44.05 124.51 43.96C126.51 42.41 147.24 26.28 156.84 12.44C159.06 9.25 161.73 4.68 163.34 1.85C163.89 0.88 163.01 -0.25 161.93 0.04C158.2 1.06 151.56 2.93 146.86 4.58C140.37 6.87 132.81 10.44 125.96 13.97C122.08 14.47 117.4 16.44 112.97 19.71C111.35 20.92 109.88 22.2 108.59 23.53C107.16 24.37 106.2 24.94 105.86 25.14C105.77 25.2 105.68 25.24 105.58 25.27L84.99 31.61C84.75 31.68 84.53 31.83 84.37 32.02L37.26 90.36C36.44 91.37 37.49 92.81 38.71 92.34L110.8 64.25ZM108.59 23.53C103.32 28.95 101.08 35 103.56 38.35C104.14 39.14 111.71 41.24 124.01 31.37C136.32 21.49 134.51 17 133.55 16.16C131.73 14.57 129.35 13.53 125.96 13.97C118.66 17.73 112.15 21.44 108.59 23.53ZM103.96 74.11C103.98 73.2 103.07 72.56 102.22 72.9L32.02 100.81C31.72 100.93 31.48 101.16 31.36 101.46C30.8 102.81 29.29 106.88 29.41 111.12C29.66 119.61 40.41 129.64 42.98 131.93C43.32 132.23 43.79 132.31 44.21 132.13C45.43 131.62 48.04 130.42 49.97 128.74C51.15 127.72 52.88 103.27 53.17 98.97C53.2 98.56 53.42 98.2 53.77 97.98L63.19 92.2C63.75 91.86 64.47 91.99 64.87 92.51L89.96 125.57C90.36 126.1 91.11 126.23 91.66 125.87L102.37 118.9C102.72 118.68 102.93 118.29 102.94 117.87L103.96 74.11Z" fill="#FFFFFF" fill-opacity="1.000000" fill-rule="evenodd"/>
</svg>
