<svg width="34.208984" height="23.797852" viewBox="0 0 34.209 23.7979" fill="none" xmlns="http://www.w3.org/2000/svg" xmlns:xlink="http://www.w3.org/1999/xlink">
	<desc>
			Created with Pixso.
	</desc>
	<defs/>
	<rect id="Base" width="34.209641" height="23.798012" fill="#FFFFFF" fill-opacity="0"/>
	<path id="Icon" d="M13.61 11.87C13.65 11.88 13.7 11.89 13.75 11.89L20.45 11.89C20.5 11.89 20.55 11.88 20.59 11.87C20.64 11.85 20.68 11.82 20.71 11.79C20.74 11.75 20.77 11.71 20.79 11.67C20.81 11.62 20.82 11.57 20.82 11.52C20.82 11.47 20.81 11.43 20.79 11.38Q20.77 11.33 20.73 11.29Q20.72 11.27 20.71 11.26C20.68 11.23 20.64 11.2 20.59 11.18C20.55 11.16 20.5 11.15 20.45 11.15L13.75 11.15C13.7 11.15 13.65 11.16 13.61 11.18C13.56 11.2 13.53 11.23 13.49 11.26Q13.48 11.27 13.47 11.29Q13.43 11.33 13.41 11.38C13.39 11.43 13.38 11.47 13.38 11.52C13.38 11.57 13.39 11.62 13.41 11.67C13.43 11.71 13.46 11.75 13.49 11.79C13.53 11.82 13.56 11.85 13.61 11.87Z" fill="#000E6A" fill-opacity="1.000000" fill-rule="evenodd"/>
</svg>
