<svg width="34.208984" height="23.797852" viewBox="0 0 34.209 23.7979" fill="none" xmlns="http://www.w3.org/2000/svg" xmlns:xlink="http://www.w3.org/1999/xlink">
	<desc>
			Created with Pixso.
	</desc>
	<defs/>
	<path id="Base" d="M0 0L29 0C31.87 0 34.2 2.33 34.2 5.2L34.2 23.79L0 23.79L0 0Z" fill="#FFFFFF" fill-opacity="0" fill-rule="evenodd"/>
	<path id="ChromeClose" d="M14.02 15.5L17.1 12.42L20.18 15.5C20.26 15.58 20.34 15.61 20.45 15.61Q20.5 15.61 20.54 15.6Q20.57 15.59 20.59 15.58C20.64 15.56 20.68 15.54 20.71 15.5C20.74 15.47 20.77 15.43 20.79 15.38C20.81 15.34 20.82 15.29 20.82 15.24C20.82 15.14 20.78 15.05 20.71 14.98L17.63 11.89L20.71 8.81C20.78 8.74 20.82 8.65 20.82 8.55C20.82 8.5 20.81 8.45 20.79 8.4Q20.77 8.35 20.73 8.31Q20.72 8.3 20.71 8.28C20.68 8.25 20.64 8.22 20.59 8.2C20.55 8.19 20.5 8.18 20.45 8.18C20.34 8.18 20.26 8.21 20.18 8.28L17.1 11.37L14.02 8.28C13.95 8.21 13.86 8.18 13.76 8.18C13.71 8.18 13.66 8.19 13.61 8.2Q13.56 8.23 13.52 8.26Q13.5 8.27 13.49 8.28C13.46 8.32 13.43 8.35 13.41 8.4C13.39 8.45 13.38 8.5 13.38 8.55C13.38 8.65 13.42 8.74 13.49 8.81L16.57 11.89L13.49 14.98C13.42 15.05 13.38 15.14 13.38 15.24C13.38 15.35 13.42 15.43 13.49 15.51C13.56 15.58 13.65 15.61 13.76 15.61C13.86 15.61 13.95 15.58 14.02 15.5Z" fill="#000E6A" fill-opacity="1.000000" fill-rule="evenodd"/>
</svg>
