<svg width="24.000000" height="24.000000" viewBox="0 0 24 24" fill="none" xmlns="http://www.w3.org/2000/svg" xmlns:xlink="http://www.w3.org/1999/xlink">
	<defs>
		<clipPath id="clip130_14447">
			<rect id="Options" rx="0.000000" width="23.000000" height="23.000000" transform="translate(0.500000 0.500000)" fill="white" fill-opacity="0"/>
		</clipPath>
	</defs>
	<rect id="Options" rx="0.000000" width="23.000000" height="23.000000" transform="translate(0.500000 0.500000)" fill="#FFFFFF" fill-opacity="0"/>
	<g clip-path="url(#clip130_14447)">
		<path id="Vector" d="M8.28 4.09C8.61 2.84 9.75 2 11.03 2L12.96 2C14.24 2 15.38 2.84 15.71 4.09L15.89 4.74C16.15 4.87 16.4 5.02 16.64 5.17L17.42 4.96C18.66 4.63 20.01 5.13 20.68 6.23L21.59 7.71C22.28 8.83 22.07 10.26 21.1 11.14L20.49 11.69C20.49 11.7 20.49 11.7 20.49 11.7C20.5 11.8 20.5 11.9 20.5 12C20.5 12.09 20.5 12.19 20.49 12.29C20.49 12.29 20.49 12.3 20.49 12.3L21.1 12.85C22.07 13.73 22.28 15.16 21.59 16.28L20.68 17.76C20.01 18.86 18.66 19.36 17.42 19.03L16.64 18.82C16.4 18.97 16.15 19.12 15.89 19.25L15.71 19.9C15.38 21.15 14.24 22 12.96 22L11.03 22C9.75 22 8.61 21.15 8.28 19.9L8.15 19.41C7.8 19.26 7.46 19.08 7.13 18.88L6.57 19.03C5.33 19.36 3.98 18.86 3.31 17.76L2.4 16.28C1.71 15.16 1.92 13.74 2.89 12.85L3.2 12.56C3.2 12.56 3.2 12.56 3.2 12.56C3.19 12.37 3.18 12.18 3.18 12C3.18 11.81 3.19 11.62 3.2 11.43C3.2 11.43 3.2 11.43 3.2 11.43L2.89 11.14C1.92 10.26 1.71 8.83 2.4 7.71L3.31 6.23C3.98 5.13 5.33 4.63 6.57 4.96L7.13 5.11C7.46 4.91 7.8 4.73 8.15 4.58L8.28 4.09ZM11.03 4C10.63 4 10.3 4.26 10.21 4.6L10.07 5.12C9.91 5.72 9.48 6.17 8.97 6.4C8.69 6.52 8.43 6.66 8.18 6.82C7.74 7.08 7.19 7.2 6.64 7.05L6.05 6.89C5.64 6.78 5.21 6.96 5.01 7.28L4.11 8.76C3.92 9.06 3.97 9.42 4.23 9.66L4.57 9.97C5.05 10.4 5.24 11.01 5.2 11.57C5.19 11.71 5.18 11.85 5.18 12C5.18 12.14 5.19 12.28 5.2 12.42C5.24 12.98 5.05 13.59 4.57 14.02L4.23 14.33C3.97 14.57 3.92 14.93 4.11 15.23L5.01 16.71C5.21 17.03 5.64 17.21 6.05 17.1L6.64 16.94C7.19 16.79 7.74 16.91 8.18 17.17C8.43 17.33 8.69 17.47 8.97 17.59C9.48 17.82 9.91 18.27 10.07 18.87L10.21 19.39C10.3 19.73 10.63 20 11.03 20L12.96 20C13.36 20 13.69 19.73 13.78 19.39L13.96 18.7C14.11 18.13 14.51 17.7 14.99 17.46C15.19 17.36 15.39 17.25 15.57 17.13C16.01 16.85 16.57 16.73 17.13 16.88L17.94 17.1C18.35 17.21 18.78 17.03 18.98 16.71L19.88 15.23C20.07 14.93 20.02 14.57 19.76 14.33L19.13 13.76C18.67 13.34 18.47 12.76 18.49 12.22C18.5 12.14 18.5 12.07 18.5 12C18.5 11.92 18.5 11.85 18.49 11.77C18.47 11.23 18.67 10.65 19.13 10.23L19.76 9.66C20.02 9.42 20.07 9.06 19.88 8.76L18.98 7.28C18.78 6.96 18.35 6.78 17.94 6.89L17.13 7.11C16.57 7.26 16.01 7.14 15.57 6.86C15.39 6.74 15.19 6.63 14.99 6.53C14.51 6.29 14.11 5.86 13.96 5.29L13.78 4.6C13.69 4.26 13.36 4 12.96 4L11.03 4ZM12 11C11.44 11 11 11.44 11 12C11 12.55 11.44 13 12 13C12.55 13 13 12.55 13 12C13 11.44 12.55 11 12 11ZM9 12C9 10.34 10.34 9 12 9C13.65 9 15 10.34 15 12C15 13.65 13.65 15 12 15C10.34 15 9 13.65 9 12Z" fill="#000E6A" fill-opacity="0.250000" fill-rule="evenodd"/>
	</g>
</svg>
