<svg width="20.000000" height="20.000000" viewBox="0 0 20 20" fill="none" xmlns="http://www.w3.org/2000/svg" xmlns:xlink="http://www.w3.org/1999/xlink">
	<desc>
			Created with Pixso.
	</desc>
	<defs>
		<clipPath id="clip421_9285">
			<rect id="Ton" rx="0.000000" width="18.697920" height="18.697920" transform="translate(0.651042 0.651042)" fill="white" fill-opacity="0"/>
		</clipPath>
	</defs>
	<rect id="Ton" rx="0.000000" width="18.697920" height="18.697920" transform="translate(0.651042 0.651042)" fill="#FFFFFF" fill-opacity="0"/>
	<g clip-path="url(#clip421_9285)">
		<path id="Vector" d="M10 20C15.5 20 20 15.5 20 10C19.99 4.49 15.49 0 10 0C4.49 0 0 4.49 0 10C0 15.5 4.49 20 10 20Z" fill="#0088CC" fill-opacity="1.000000" fill-rule="nonzero"/>
		<path id="Vector" d="M7.18 6.62L12.81 6.62C12.99 6.62 13.18 6.62 13.43 6.75C13.68 6.87 13.81 7.06 13.93 7.18C13.93 7.18 13.93 7.18 13.93 7.24C14.06 7.43 14.12 7.62 14.12 7.87C14.12 8.06 14.06 8.31 13.93 8.49L10.37 14.56C10.31 14.68 10.12 14.75 10 14.75C9.87 14.75 9.68 14.68 9.62 14.56L6.12 8.49C6.06 8.37 5.93 8.18 5.87 7.87C5.87 7.62 5.93 7.37 6 7.18C6.12 6.99 6.31 6.81 6.5 6.68C6.81 6.62 7.06 6.62 7.18 6.62ZM9.56 7.5L7.18 7.5C7.06 7.5 6.99 7.5 6.93 7.5C6.87 7.5 6.81 7.56 6.81 7.62C6.74 7.68 6.74 7.75 6.74 7.81C6.74 7.87 6.74 7.87 6.87 8.06L9.56 12.75L9.56 7.5ZM10.43 7.5L10.43 12.75L13.18 8.06C13.18 8 13.25 7.93 13.25 7.81C13.25 7.74 13.25 7.68 13.18 7.62C13.12 7.56 13.12 7.56 13.12 7.56C13.12 7.56 13.12 7.56 13.06 7.56C12.99 7.56 12.93 7.49 12.81 7.49L10.43 7.49L10.43 7.5Z" fill="#FFFFFF" fill-opacity="1.000000" fill-rule="evenodd"/>
	</g>
</svg>
