<svg width="20.000000" height="20.000000" viewBox="0 0 20 20" fill="none" xmlns="http://www.w3.org/2000/svg" xmlns:xlink="http://www.w3.org/1999/xlink">
	<desc>
			Created with Pixso.
	</desc>
	<defs>
		<clipPath id="clip421_9284">
			<rect id="USDT" rx="0.000000" width="18.697920" height="18.697920" transform="translate(0.651042 0.651042)" fill="white" fill-opacity="0"/>
		</clipPath>
	</defs>
	<rect id="USDT" rx="0.000000" width="18.697920" height="18.697920" transform="translate(0.651042 0.651042)" fill="#FFFFFF" fill-opacity="0"/>
	<g clip-path="url(#clip421_9284)">
		<path id="Vector" d="M4.32 1.7L15.88 1.7C16.17 1.7 16.42 1.87 16.54 2.08L19.9 7.92C20.06 8.21 20.02 8.62 19.77 8.87L10.54 18.07C10.25 18.36 9.75 18.36 9.46 18.07L0.22 8.91C-0.03 8.67 -0.07 8.25 0.09 7.96L3.7 2.08C3.83 1.83 4.07 1.7 4.32 1.7ZM14.39 4.31L14.39 5.97L11.12 5.97L11.12 7.09C13.43 7.21 15.17 7.71 15.17 8.29L15.17 9.53C15.17 10.11 13.43 10.65 11.12 10.74L11.12 13.55L8.92 13.55L8.92 10.82C6.6 10.69 4.86 10.2 4.86 9.62L4.86 8.37C4.86 7.79 6.6 7.25 8.92 7.17L8.92 6.01L5.65 6.01L5.65 4.36L14.39 4.36L14.39 4.31ZM10.04 9.95C12.53 9.95 14.55 9.53 15.09 8.96C14.68 8.46 13.11 8.08 11.16 8L11.16 9.2C10.79 9.2 10.45 9.24 10.08 9.24C9.71 9.24 9.33 9.24 9.01 9.2L9.01 8C7.06 8.08 5.49 8.5 5.07 8.96C5.48 9.53 7.55 9.95 10.04 9.95Z" fill="#009393" fill-opacity="1.000000" fill-rule="evenodd"/>
	</g>
</svg>
