<svg width="17.000000" height="17.000000" viewBox="0 0 17 17" fill="none" xmlns="http://www.w3.org/2000/svg" xmlns:xlink="http://www.w3.org/1999/xlink">
	<defs/>
	<path id="Vector" d="M10 1C10 1.55 10.44 2 11 2L13.58 2L8.29 7.29C7.9 7.68 7.9 8.31 8.29 8.7C8.68 9.09 9.31 9.09 9.7 8.7L15 3.41L15 6C15 6.55 15.44 7 16 7C16.55 7 17 6.55 17 6L17 1C17 0.44 16.55 0 16 0L11 0C10.44 0 10 0.44 10 1ZM4.16 1L2.8 1.03C2.41 1.06 2.01 1.13 1.63 1.32C1.07 1.61 0.61 2.07 0.32 2.63C0.13 3.01 0.06 3.4 0.03 3.8C0 4.17 0 4.63 0 5.16L0 12.83C0 13.36 0 13.82 0.03 14.19C0.06 14.59 0.13 14.98 0.32 15.36C0.61 15.92 1.07 16.38 1.63 16.67C2.01 16.86 2.4 16.93 2.8 16.96C3.17 17 3.63 17 4.15 17L11.84 17C12.36 17 12.82 17 13.19 16.96C13.59 16.93 13.98 16.86 14.36 16.67C14.92 16.38 15.38 15.92 15.67 15.36L15.67 15.36C15.86 14.98 15.93 14.59 15.96 14.19C16 13.82 16 13.36 16 12.84L16 11C16 10.44 15.55 10 15 10C14.44 10 14 10.44 14 11L14 12.8C14 13.37 13.99 13.75 13.97 14.03C13.95 14.3 13.91 14.4 13.89 14.45C13.79 14.64 13.64 14.79 13.45 14.89C13.4 14.91 13.3 14.95 13.03 14.97C12.75 14.99 12.37 15 11.8 15L4.19 15C3.62 15 3.25 14.99 2.96 14.97C2.69 14.95 2.59 14.91 2.54 14.89C2.35 14.79 2.2 14.64 2.1 14.45C2.08 14.4 2.04 14.3 2.02 14.03C2 13.74 2 13.37 2 12.8L2 5.19C2 4.62 2 4.25 2.02 3.96C2.04 3.69 2.08 3.59 2.1 3.54C2.2 3.35 2.35 3.2 2.54 3.1C2.59 3.08 2.69 3.04 2.96 3.02C3.25 3 3.62 3 4.2 3L6 3C6.55 3 7 2.55 7 2C7 1.44 6.55 1 6 1L4.16 1Z" fill="#419FD9" fill-opacity="1.000000" fill-rule="evenodd"/>
</svg>
