<svg width="22.038086" height="22.038330" viewBox="0 0 22.0381 22.0383" fill="none" xmlns="http://www.w3.org/2000/svg" xmlns:xlink="http://www.w3.org/1999/xlink">
	<defs/>
	<path id="Vector" d="M10.55 1.14C11.99 0.24 13.69 -0.15 15.38 0.04C17.06 0.23 18.64 0.99 19.84 2.19C21.04 3.39 21.8 4.97 21.99 6.65C22.18 8.34 21.79 10.04 20.89 11.48C19.98 12.92 18.62 14.01 17.02 14.57C15.62 15.06 14.11 15.13 12.68 14.76L12.29 15.15C11.73 15.72 10.96 16.03 10.17 16.03L10 16.03L10 17.03C10 17.56 9.78 18.07 9.41 18.45C9.03 18.82 8.53 19.03 8 19.03L7 19.03L7 20.03C7 20.56 6.78 21.07 6.41 21.45C6.03 21.82 5.53 22.03 5 22.03L2 22.03C1.46 22.03 0.96 21.82 0.58 21.45C0.21 21.07 0 20.56 0 20.03L0 17.86C0 17.07 0.31 16.3 0.87 15.74L7.27 9.35C6.9 7.92 6.97 6.41 7.46 5.01C8.02 3.41 9.11 2.04 10.55 1.14ZM15.15 2.03C13.91 1.89 12.67 2.17 11.61 2.84C10.56 3.5 9.76 4.5 9.34 5.67C8.93 6.85 8.93 8.13 9.34 9.3C9.47 9.67 9.37 10.07 9.1 10.34L2.29 17.15C2.1 17.34 2 17.6 2 17.86L2 20.03L5 20.03L5 19.03C5 18.5 5.21 17.99 5.58 17.62C5.96 17.24 6.46 17.03 7 17.03L8 17.03L8 16.03C8 15.5 8.21 14.99 8.58 14.62C8.96 14.24 9.46 14.03 10 14.03L10.17 14.03C10.43 14.03 10.69 13.93 10.87 13.74L11.69 12.93C11.96 12.65 12.36 12.56 12.72 12.69C13.9 13.1 15.18 13.1 16.36 12.68C17.53 12.27 18.53 11.47 19.19 10.42C19.85 9.36 20.14 8.11 20 6.88C19.86 5.64 19.3 4.49 18.42 3.61C17.54 2.73 16.39 2.17 15.15 2.03ZM15.5 5.03C14.67 5.03 14 5.7 14 6.53C14 7.36 14.67 8.03 15.5 8.03C16.32 8.03 17 7.36 17 6.53C17 5.7 16.32 5.03 15.5 5.03Z" fill="#000E6A" fill-opacity="0.250000" fill-rule="evenodd"/>
</svg>
