<svg width="19.310913" height="20.000000" viewBox="0 0 19.3109 20" fill="none" xmlns="http://www.w3.org/2000/svg" xmlns:xlink="http://www.w3.org/1999/xlink">
	<defs/>
	<path id="Vector" d="M8.15 2.21C7.36 2.4 6.59 2.71 5.88 3.13C4.64 3.88 3.62 4.95 2.94 6.22C2.26 7.5 1.93 8.94 2 10.39C2.08 11.83 2.54 13.23 3.34 14.44C4.15 15.64 5.26 16.6 6.57 17.22C7.88 17.84 9.33 18.1 10.77 17.96C12.21 17.82 13.59 17.29 14.75 16.43C15.32 16 15.83 15.51 16.27 14.96C15.14 15.07 13.99 14.94 12.9 14.59C11.01 13.99 9.39 12.74 8.32 11.06C7.25 9.38 6.81 7.39 7.06 5.41C7.21 4.28 7.58 3.19 8.15 2.21ZM10.12 0L10.39 0C10.8 0 11.17 0.25 11.32 0.64C11.47 1.02 11.37 1.46 11.07 1.74C9.95 2.77 9.24 4.16 9.04 5.67C8.85 7.18 9.19 8.7 10.01 9.99C10.82 11.27 12.06 12.23 13.51 12.69C14.96 13.15 16.52 13.09 17.93 12.52C18.3 12.37 18.73 12.46 19.02 12.75C19.3 13.03 19.38 13.46 19.23 13.83C18.53 15.5 17.4 16.96 15.94 18.03C14.49 19.11 12.77 19.77 10.97 19.95C9.17 20.12 7.35 19.81 5.71 19.03C4.08 18.26 2.68 17.05 1.68 15.55C0.67 14.04 0.1 12.29 0.01 10.48C-0.08 8.67 0.32 6.88 1.18 5.28C2.03 3.68 3.3 2.35 4.85 1.42C6.41 0.49 8.18 0 9.99 0C10.04 0 10.08 0 10.12 0Z" fill="#000E6A" fill-opacity="0.250000" fill-rule="evenodd"/>
</svg>
