<svg width="12.958008" height="15.000000" viewBox="0 0 12.958 15" fill="none" xmlns="http://www.w3.org/2000/svg" xmlns:xlink="http://www.w3.org/1999/xlink">
	<defs/>
	<path id="Vector" d="M6.47 4.5C7.87 4.5 9.2 5.05 10.19 6.03C11.17 7.02 11.72 8.35 11.72 9.75C11.72 11.14 11.17 12.47 10.19 13.46C9.2 14.44 7.87 15 6.47 15C5.08 15 3.75 14.44 2.76 13.46C1.78 12.47 1.22 11.14 1.22 9.75C1.22 8.35 1.78 7.02 2.76 6.03C3.75 5.05 5.08 4.5 6.47 4.5ZM6.47 8.25C6.08 8.25 5.7 8.4 5.41 8.68C5.13 8.97 4.97 9.35 4.97 9.75C4.97 10.14 5.13 10.52 5.41 10.81C5.7 11.09 6.08 11.25 6.47 11.25C6.87 11.25 7.25 11.09 7.54 10.81C7.82 10.52 7.97 10.14 7.97 9.75C7.97 9.35 7.82 8.97 7.54 8.68C7.25 8.4 6.87 8.25 6.47 8.25ZM4.54 0C4.78 0 5.02 0.05 5.24 0.17C5.45 0.28 5.64 0.45 5.78 0.65L5.84 0.75L7.14 3.03C6.24 2.94 5.32 3.03 4.45 3.3C3.58 3.58 2.78 4.02 2.08 4.62L1.91 4.77L0.14 1.68C0.05 1.51 0 1.33 0 1.14C-0.01 0.95 0.04 0.77 0.12 0.6C0.21 0.43 0.34 0.29 0.5 0.18C0.65 0.08 0.83 0.02 1.02 0L1.12 0L4.54 0ZM11.83 0C12.02 0 12.22 0.05 12.39 0.14C12.56 0.24 12.7 0.38 12.8 0.56C12.9 0.73 12.95 0.92 12.95 1.12C12.95 1.31 12.9 1.51 12.8 1.68L11.04 4.77C10.41 4.19 9.67 3.74 8.87 3.43L7.34 0.75C7.31 0.69 7.27 0.63 7.22 0.58C7.36 0.39 7.54 0.25 7.75 0.15C7.95 0.05 8.18 0 8.41 0L11.83 0Z" fill="#000E6A" fill-opacity="0.250000" fill-rule="nonzero"/>
</svg>
