<svg width="19.999023" height="20.000000" viewBox="0 0 19.999 20" fill="none" xmlns="http://www.w3.org/2000/svg" xmlns:xlink="http://www.w3.org/1999/xlink">
	<defs/>
	<path id="Vector" d="M12.02 0L12.31 0C13.75 0 14.67 0 15.45 0.2C16.49 0.48 17.44 1.03 18.2 1.79C18.96 2.55 19.51 3.5 19.79 4.54C19.99 5.32 19.99 6.24 19.99 7.68L19.99 9.78C19.99 10.47 19.99 11.04 19.95 11.51C19.92 12 19.83 12.46 19.61 12.89C19.27 13.56 18.72 14.11 18.06 14.45C17.62 14.67 17.16 14.76 16.67 14.79C16.2 14.83 15.63 14.83 14.94 14.83L12.79 14.83C12.1 14.83 11.53 14.83 11.06 14.79C10.57 14.76 10.11 14.67 9.67 14.45C9.01 14.11 8.46 13.56 8.12 12.9C7.9 12.46 7.81 12 7.78 11.51C7.74 11.04 7.74 10.47 7.74 9.78L7.74 4.28C7.74 3.6 7.74 3.08 7.86 2.63C8.02 2.03 8.34 1.48 8.78 1.04C9.22 0.6 9.76 0.28 10.37 0.12C10.82 0 11.34 0 12.02 0ZM12.15 1.93C11.28 1.93 11.04 1.94 10.87 1.99C10.59 2.06 10.35 2.2 10.15 2.4C9.95 2.6 9.8 2.85 9.73 3.13C9.68 3.3 9.67 3.54 9.67 4.4L9.67 9.74C9.67 10.47 9.67 10.97 9.7 11.35C9.73 11.72 9.79 11.9 9.85 12.02C10 12.32 10.25 12.57 10.55 12.72C10.67 12.78 10.85 12.84 11.22 12.87C11.6 12.9 12.09 12.9 12.83 12.9L14.9 12.9C15.64 12.9 16.13 12.9 16.51 12.87C16.88 12.84 17.06 12.78 17.18 12.72C17.48 12.57 17.73 12.32 17.88 12.02C17.94 11.9 18 11.72 18.03 11.35C18.06 10.97 18.06 10.48 18.06 9.74L18.06 7.84C18.06 7.27 18.06 6.81 18.05 6.45L15.8 6.45C15.2 6.45 14.63 6.21 14.2 5.78C13.78 5.36 13.54 4.79 13.54 4.19L13.54 1.94C13.08 1.93 12.61 1.93 12.15 1.93ZM15.48 2.25L15.48 4.19C15.48 4.37 15.62 4.51 15.8 4.51L17.74 4.51C17.31 3.49 16.5 2.68 15.48 2.25ZM5.47 5.16L5.48 5.16C5.74 5.16 5.98 5.26 6.16 5.44C6.34 5.62 6.45 5.87 6.45 6.12C6.45 6.38 6.34 6.63 6.16 6.81C5.98 6.99 5.74 7.09 5.48 7.09C5.16 7.09 4.54 7.09 3.94 7.12C3.67 7.14 3.41 7.16 3.14 7.2C3.03 7.21 2.92 7.24 2.81 7.27C2.51 7.42 2.26 7.67 2.11 7.97C2.05 8.09 1.99 8.27 1.96 8.64C1.93 9.02 1.93 9.51 1.93 10.25L1.93 14.9C1.93 15.64 1.93 16.13 1.96 16.51C1.99 16.88 2.05 17.06 2.11 17.18C2.26 17.48 2.51 17.73 2.81 17.88C2.93 17.94 3.1 18 3.47 18.03C3.86 18.06 4.35 18.06 5.09 18.06L7.16 18.06C7.89 18.06 8.39 18.06 8.77 18.03C9.14 18 9.32 17.94 9.44 17.88C9.74 17.73 9.99 17.48 10.14 17.18C10.22 17.02 10.27 16.84 10.29 16.67C10.3 16.6 10.31 16.52 10.32 16.45L10.32 16.44C10.32 16.18 10.42 15.94 10.6 15.76C10.79 15.58 11.03 15.48 11.29 15.48C11.54 15.48 11.79 15.58 11.97 15.76C12.15 15.94 12.25 16.19 12.25 16.45L12.25 16.5L12.25 16.62C12.24 16.74 12.22 16.86 12.21 16.98C12.16 17.26 12.07 17.66 11.87 18.06C11.53 18.72 10.98 19.27 10.32 19.61C9.88 19.83 9.42 19.92 8.93 19.96C8.46 20 7.88 20 7.19 20L5.05 20C4.36 20 3.79 20 3.32 19.96C2.83 19.92 2.37 19.83 1.93 19.61C1.27 19.27 0.72 18.73 0.38 18.06C0.16 17.62 0.07 17.16 0.03 16.67C0 16.2 0 15.63 0 14.94L0 10.22C0 9.52 0 8.95 0.03 8.48C0.07 7.99 0.16 7.53 0.38 7.1C0.72 6.43 1.26 5.88 1.93 5.54C2.22 5.39 2.58 5.33 2.86 5.29C3.16 5.24 3.51 5.21 3.84 5.19C4.49 5.16 5.15 5.16 5.47 5.16Z" fill="#419FD9" fill-opacity="1.000000" fill-rule="nonzero"/>
</svg>
