<svg width="20.000000" height="20.000000" viewBox="0 0 20 20" fill="none" xmlns="http://www.w3.org/2000/svg" xmlns:xlink="http://www.w3.org/1999/xlink">
	<defs/>
	<path id="Vector" d="M10 0C8.02 0 6.08 0.58 4.44 1.68C2.79 2.78 1.51 4.34 0.76 6.17C0 8 -0.2 10.01 0.19 11.95C0.57 13.89 1.53 15.67 2.92 17.07C4.32 18.46 6.1 19.42 8.04 19.8C9.98 20.19 11.99 19.99 13.82 19.23C15.65 18.48 17.21 17.2 18.31 15.55C19.41 13.91 20 11.97 20 10C19.99 7.34 18.94 4.8 17.06 2.93C15.19 1.05 12.65 0 10 0ZM10 18.18C8.3 18.14 6.66 17.61 5.26 16.65C5.86 15.99 6.59 15.46 7.4 15.09C8.22 14.73 9.1 14.54 10 14.54C10.89 14.54 11.77 14.73 12.59 15.09C13.4 15.46 14.13 15.99 14.73 16.65C13.34 17.63 11.69 18.16 10 18.18ZM16.08 15.44C15.31 14.59 14.38 13.9 13.33 13.43C12.28 12.96 11.14 12.72 10 12.72C8.85 12.72 7.71 12.96 6.66 13.43C5.61 13.9 4.68 14.59 3.91 15.44C2.85 14.27 2.16 12.81 1.91 11.25C1.67 9.69 1.88 8.09 2.52 6.64C3.17 5.2 4.21 3.97 5.54 3.11C6.87 2.25 8.41 1.79 10 1.79C11.58 1.79 13.12 2.25 14.45 3.11C15.78 3.97 16.82 5.2 17.47 6.64C18.11 8.09 18.32 9.69 18.08 11.25C17.83 12.81 17.14 14.27 16.08 15.44ZM10 4.54C9.28 4.54 8.57 4.75 7.97 5.15C7.38 5.55 6.91 6.12 6.64 6.79C6.36 7.45 6.29 8.18 6.43 8.89C6.57 9.59 6.91 10.24 7.42 10.75C7.93 11.26 8.58 11.6 9.29 11.74C9.99 11.88 10.72 11.81 11.39 11.54C12.05 11.26 12.62 10.8 13.02 10.2C13.42 9.6 13.63 8.9 13.63 8.18C13.63 7.21 13.25 6.29 12.57 5.61C11.88 4.92 10.96 4.54 10 4.54ZM10 10C9.64 10 9.28 9.89 8.98 9.69C8.69 9.49 8.45 9.2 8.32 8.87C8.18 8.54 8.14 8.17 8.21 7.82C8.28 7.47 8.45 7.15 8.71 6.89C8.96 6.64 9.29 6.46 9.64 6.39C9.99 6.32 10.36 6.36 10.69 6.5C11.02 6.63 11.31 6.87 11.51 7.17C11.71 7.47 11.81 7.82 11.81 8.18C11.81 8.66 11.62 9.12 11.28 9.46C10.94 9.8 10.48 10 10 10Z" fill="#000E6A" fill-opacity="0.250000" fill-rule="nonzero"/>
</svg>
