<svg width="18.500000" height="19.501953" viewBox="0 0 18.5 19.502" fill="none" xmlns="http://www.w3.org/2000/svg" xmlns:xlink="http://www.w3.org/1999/xlink">
	<defs/>
	<path id="Vector" d="M7.91 2.34C8.71 1.88 9.78 1.88 10.58 2.34L16.75 5.86C17.23 6.14 17.84 5.97 18.11 5.49C18.39 5.01 18.22 4.4 17.74 4.13L11.58 0.6C10.16 -0.21 8.33 -0.21 6.91 0.6L0.75 4.13C0.27 4.4 0.1 5.01 0.38 5.49C0.65 5.97 1.26 6.14 1.74 5.86L7.91 2.34ZM11.46 4.27C10.12 3.38 8.37 3.38 7.03 4.27L1.44 7.99C0.99 8.29 0.63 8.69 0.38 9.16C0.13 9.63 -0.01 10.16 0 10.69L0 14.5C0 17.26 2.23 19.5 5 19.5L7.25 19.5L7.25 14C7.25 13.67 7.38 13.35 7.61 13.11C7.85 12.88 8.16 12.75 8.5 12.75L10 12.75C10.33 12.75 10.64 12.88 10.88 13.11C11.11 13.35 11.25 13.67 11.25 14L11.25 19.5L13.5 19.5C16.26 19.5 18.5 17.26 18.5 14.5L18.5 10.69C18.5 10.16 18.36 9.63 18.11 9.16C17.86 8.69 17.5 8.29 17.05 7.99L11.46 4.27ZM8.14 5.94C8.81 5.49 9.68 5.49 10.35 5.94L15.94 9.65C16.11 9.77 16.25 9.92 16.35 10.1C16.44 10.28 16.5 10.49 16.5 10.69L16.5 14.5C16.5 16.15 15.15 17.5 13.5 17.5L13.25 17.5L13.25 14C13.25 13.13 12.9 12.31 12.29 11.7C11.68 11.09 10.86 10.75 10 10.75L8.5 10.75C7.63 10.75 6.81 11.09 6.2 11.7C5.59 12.31 5.25 13.13 5.25 14L5.25 17.5L5 17.5C3.34 17.5 2 16.15 2 14.5L2 10.69C2 10.49 2.05 10.28 2.14 10.1C2.24 9.92 2.38 9.77 2.55 9.65L8.14 5.94Z" fill="#419FD9" fill-opacity="1.000000" fill-rule="evenodd"/>
</svg>
