<svg width="20.000000" height="20.000000" viewBox="0 0 20 20" fill="none" xmlns="http://www.w3.org/2000/svg" xmlns:xlink="http://www.w3.org/1999/xlink">
	<defs>
		<clipPath id="clip421_9205">
			<rect id="XMR" rx="0.000000" width="18.697920" height="18.697920" transform="translate(0.651042 0.651042)" fill="white" fill-opacity="0"/>
		</clipPath>
	</defs>
	<rect id="XMR" rx="0.000000" width="18.697920" height="18.697920" transform="translate(0.651042 0.651042)" fill="#FFFFFF" fill-opacity="0"/>
	<g clip-path="url(#clip421_9205)">
		<path id="path22" d="M10 0C4.47 0 0 4.47 0 10C0 11.1 0.17 12.16 0.5 13.15L3.5 13.15L3.5 4.74L10 11.24L16.5 4.74L16.5 13.15L19.49 13.15C19.82 12.16 20 11.1 20 10C20 4.47 15.52 0 10 0Z" fill="#FF6600" fill-opacity="1.000000" fill-rule="nonzero"/>
		<path id="path26" d="M5.67 9.9L5.67 15.19L1.45 15.19C3.2 18.07 6.38 20 10 20C13.61 20 16.78 18.07 18.54 15.19L14.33 15.19L14.33 9.9L10 14.23L5.67 9.9Z" fill="#000E6A" fill-opacity="1.000000" fill-rule="nonzero"/>
	</g>
</svg>
